<svg width="1129" height="260" viewBox="0 0 1129 260" fill="none" xmlns="http://www.w3.org/2000/svg">
<path d="M257.708 207V50.2114H319.976C329.532 50.2114 338.044 52.1526 345.51 56.035C353.125 59.768 359.024 65.1436 363.205 72.1618C367.535 79.0306 369.7 87.318 369.7 97.024V99.9358C369.7 109.642 367.46 118.004 362.981 125.022C358.65 132.04 352.752 137.416 345.286 141.149C337.82 144.882 329.383 146.748 319.976 146.748H281.898V207H257.708ZM281.898 124.798H317.512C326.023 124.798 332.817 122.558 337.894 118.078C342.971 113.599 345.51 107.477 345.51 99.7118V97.4719C345.51 89.5579 342.971 83.361 337.894 78.8813C332.817 74.4016 326.023 72.1618 317.512 72.1618H281.898V124.798ZM407.284 210.136C399.37 210.136 392.277 208.792 386.005 206.104C379.883 203.416 374.956 199.459 371.222 194.233C367.639 189.007 365.847 182.66 365.847 175.194C365.847 167.579 367.639 161.307 371.222 156.38C374.956 151.303 379.958 147.495 386.229 144.957C392.65 142.418 399.892 141.149 407.956 141.149H441.553V133.981C441.553 127.56 439.612 122.409 435.73 118.526C431.847 114.644 425.875 112.703 417.811 112.703C409.897 112.703 403.849 114.569 399.668 118.302C395.487 122.035 392.725 126.888 391.381 132.861L369.879 125.918C371.67 119.945 374.508 114.569 378.39 109.791C382.422 104.863 387.723 100.906 394.293 97.9199C400.863 94.9335 408.777 93.4402 418.035 93.4402C432.37 93.4402 443.644 97.0986 451.857 104.415C460.069 111.732 464.176 122.11 464.176 135.549V181.018C464.176 185.498 466.266 187.737 470.447 187.737H479.855V207H462.608C457.382 207 453.126 205.656 449.841 202.968C446.556 200.28 444.913 196.622 444.913 191.993V191.321H441.553C440.359 193.561 438.567 196.174 436.178 199.161C433.789 202.147 430.28 204.76 425.651 207C421.022 209.091 414.899 210.136 407.284 210.136ZM410.644 191.097C419.902 191.097 427.368 188.484 433.042 183.258C438.716 177.882 441.553 170.565 441.553 161.307V159.067H409.3C403.178 159.067 398.25 160.411 394.517 163.099C390.784 165.638 388.917 169.445 388.917 174.522C388.917 179.599 390.858 183.631 394.741 186.617C398.623 189.604 403.924 191.097 410.644 191.097ZM484.368 207V96.576H506.99V109.567H510.574C512.365 104.938 515.203 101.578 519.085 99.4878C523.117 97.248 528.044 96.128 533.868 96.128H547.083V116.959H532.972C525.506 116.959 519.384 119.049 514.605 123.23C509.827 127.262 507.438 133.533 507.438 142.045V207H484.368ZM584.275 210.136C576.361 210.136 569.268 208.792 562.996 206.104C556.874 203.416 551.946 199.459 548.213 194.233C544.63 189.007 542.838 182.66 542.838 175.194C542.838 167.579 544.63 161.307 548.213 156.38C551.946 151.303 556.949 147.495 563.22 144.957C569.641 142.418 576.883 141.149 584.947 141.149H618.544V133.981C618.544 127.56 616.603 122.409 612.721 118.526C608.838 114.644 602.865 112.703 594.802 112.703C586.888 112.703 580.84 114.569 576.659 118.302C572.478 122.035 569.716 126.888 568.372 132.861L546.869 125.918C548.661 119.945 551.498 114.569 555.381 109.791C559.413 104.863 564.714 100.906 571.284 97.9199C577.854 94.9335 585.768 93.4402 595.026 93.4402C609.361 93.4402 620.635 97.0986 628.848 104.415C637.06 111.732 641.167 122.11 641.167 135.549V181.018C641.167 185.498 643.257 187.737 647.438 187.737H656.845V207H639.599C634.372 207 630.117 205.656 626.832 202.968C623.547 200.28 621.904 196.622 621.904 191.993V191.321H618.544C617.35 193.561 615.558 196.174 613.169 199.161C610.78 202.147 607.27 204.76 602.641 207C598.012 209.091 591.89 210.136 584.275 210.136ZM587.635 191.097C596.893 191.097 604.359 188.484 610.033 183.258C615.707 177.882 618.544 170.565 618.544 161.307V159.067H586.291C580.168 159.067 575.241 160.411 571.508 163.099C567.775 165.638 565.908 169.445 565.908 174.522C565.908 179.599 567.849 183.631 571.732 186.617C575.614 189.604 580.915 191.097 587.635 191.097ZM704.426 210.136C695.318 210.136 686.881 207.896 679.116 203.416C671.351 198.937 665.08 192.516 660.301 184.154C655.672 175.642 653.358 165.414 653.358 153.468V150.108C653.358 138.312 655.672 128.158 660.301 119.646C664.93 111.135 671.127 104.639 678.892 100.16C686.657 95.6801 695.168 93.4402 704.426 93.4402C711.594 93.4402 717.567 94.3362 722.345 96.128C727.273 97.9199 731.304 100.234 734.44 103.072C737.576 105.759 739.965 108.596 741.608 111.583H745.191V50.2114H768.262V207H745.639V191.321H742.056C739.218 196.099 734.888 200.43 729.065 204.312C723.39 208.195 715.178 210.136 704.426 210.136ZM710.922 189.977C720.926 189.977 729.139 186.767 735.56 180.346C742.13 173.925 745.415 164.742 745.415 152.796V150.78C745.415 138.984 742.205 129.875 735.784 123.454C729.363 117.033 721.076 113.823 710.922 113.823C701.067 113.823 692.854 117.033 686.284 123.454C679.863 129.875 676.652 138.984 676.652 150.78V152.796C676.652 164.742 679.863 173.925 686.284 180.346C692.854 186.767 701.067 189.977 710.922 189.977ZM784.305 207V96.576H807.375V207H784.305ZM795.952 81.5691C791.472 81.5691 787.664 80.1505 784.528 77.3134C781.542 74.327 780.049 70.5192 780.049 65.8902C780.049 61.2612 781.542 57.5282 784.528 54.6911C787.664 51.7046 791.472 50.2114 795.952 50.2114C800.581 50.2114 804.388 51.7046 807.375 54.6911C810.361 57.5282 811.855 61.2612 811.855 65.8902C811.855 70.5192 810.361 74.327 807.375 77.3134C804.388 80.1505 800.581 81.5691 795.952 81.5691ZM818.319 152.348V148.988C818.319 137.341 820.633 127.411 825.262 119.198C830.04 110.986 836.312 104.639 844.077 100.16C851.841 95.6801 860.353 93.4402 869.611 93.4402C880.362 93.4402 888.575 95.4561 894.249 99.4878C900.073 103.52 904.328 107.85 907.016 112.479H910.6V96.576H932.998V229.622C932.998 236.342 930.982 241.717 926.951 245.749C923.068 249.781 917.693 251.797 910.824 251.797H836.461V231.638H903.656C907.987 231.638 910.152 229.398 910.152 224.919V189.753H906.568C904.926 192.441 902.611 195.204 899.625 198.041C896.638 200.878 892.681 203.192 887.754 204.984C882.975 206.776 876.928 207.672 869.611 207.672C860.353 207.672 851.767 205.507 843.853 201.176C836.088 196.697 829.891 190.351 825.262 182.138C820.633 173.776 818.319 163.846 818.319 152.348ZM875.882 187.513C885.887 187.513 894.1 184.378 900.521 178.106C907.091 171.685 910.376 162.875 910.376 151.676V149.66C910.376 138.162 907.165 129.352 900.745 123.23C894.324 116.959 886.036 113.823 875.882 113.823C866.027 113.823 857.814 116.959 851.244 123.23C844.823 129.352 841.613 138.162 841.613 149.66V151.676C841.613 162.875 844.823 171.685 851.244 178.106C857.814 184.378 866.027 187.513 875.882 187.513ZM949.046 207V96.576H971.669V109.567H975.252C977.343 105.685 980.703 102.25 985.332 99.2638C989.961 96.2774 996.232 94.7841 1004.15 94.7841C1012.36 94.7841 1018.93 96.5013 1023.86 99.9358C1028.93 103.221 1032.74 107.477 1035.28 112.703H1038.86C1041.4 107.626 1045.06 103.37 1049.84 99.9358C1054.77 96.5013 1061.71 94.7841 1070.67 94.7841C1077.84 94.7841 1084.18 96.2774 1089.71 99.2638C1095.23 102.101 1099.64 106.431 1102.92 112.255C1106.21 117.929 1107.85 125.022 1107.85 133.533V207H1084.78V135.325C1084.78 128.606 1082.91 123.454 1079.18 119.87C1075.6 116.137 1070.45 114.271 1063.73 114.271C1056.56 114.271 1050.81 116.585 1046.48 121.214C1042.15 125.843 1039.98 132.488 1039.98 141.149V207H1016.91V135.325C1016.91 128.606 1015.05 123.454 1011.31 119.87C1007.73 116.137 1002.58 114.271 995.859 114.271C988.691 114.271 982.942 116.585 978.612 121.214C974.282 125.843 972.117 132.488 972.117 141.149V207H949.046Z" fill="white"/>
<path d="M195.908 53.7241L181.275 110.355L167.382 164.125H123.402L137.295 110.355L151.928 53.7241H195.908Z" fill="white"/>
<path d="M61.4188 215.65H0.896973L17.9328 208.168L31.3866 177.459L76.6658 177.458L61.4188 215.65Z" fill="white"/>
<path d="M185.148 95.3542H50.6591L59.4011 67.3976L0 53.7241H194.473L185.148 95.3542Z" fill="white"/>
<path d="M163.611 179.628L74.8677 179.7L91.8352 138.074L173.944 138.007L163.611 179.628Z" fill="white"/>
</svg>
